<?xml version="1.0" standalone="no"?>
<!DOCTYPE svg PUBLIC "-//W3C//DTD SVG 20010904//EN"
 "http://www.w3.org/TR/2001/REC-SVG-20010904/DTD/svg10.dtd">
<svg version="1.0" xmlns="http://www.w3.org/2000/svg"
 width="800.000000pt" height="450.000000pt" viewBox="0 0 800.000000 450.000000"
 preserveAspectRatio="xMidYMid meet">
<metadata>
Created by potrace 1.16, written by Peter Selinger 2001-2019
</metadata>
<g transform="translate(0.000000,450.000000) scale(0.100000,-0.100000)"
fill="#000000" stroke="none">
<path d="M1950 3879 c-101 -45 -154 -126 -155 -234 0 -90 16 -121 140 -269 69
-83 90 -116 80 -120 -8 -3 -15 -12 -15 -21 0 -17 36 -21 42 -4 6 17 72 -71 73
-95 0 -14 6 -21 18 -20 19 2 77 -65 77 -89 0 -8 8 -17 18 -21 9 -3 25 -11 34
-18 14 -10 20 -9 35 4 10 9 27 18 38 20 12 2 20 11 20 23 0 11 13 37 29 58 22
29 32 35 42 26 7 -6 18 -8 24 -4 14 9 13 32 -2 38 -9 3 -2 16 20 38 l33 34 -7
-1218 c-6 -1042 -5 -1220 7 -1228 8 -5 547 -9 1257 -9 683 0 1242 -2 1242 -4
0 -2 -14 -33 -30 -69 -17 -37 -30 -71 -30 -77 0 -7 188 -10 568 -10 l567 0
148 316 c159 340 170 380 79 292 -41 -40 -129 -95 -137 -86 -1 2 159 349 357
772 202 434 355 773 350 778 -5 5 -88 7 -186 6 l-178 -3 -396 -848 -397 -848
-75 -33 c-78 -33 -177 -92 -219 -130 -22 -20 -23 -20 -14 -1 6 11 198 421 427
911 271 581 416 902 416 923 l0 31 -176 -2 -175 -3 -262 -561 -262 -561 -3
1040 c-2 818 -5 1043 -15 1049 -6 4 -591 8 -1299 8 l-1286 0 -7 33 c-28 125
-146 215 -272 205 -72 -5 -126 -30 -176 -82 l-38 -39 -42 41 c-82 80 -193 104
-287 61z m665 -53 c23 -12 54 -42 73 -70 26 -40 32 -58 32 -102 0 -30 -7 -71
-15 -91 -13 -30 -252 -325 -392 -482 l-38 -43 -194 233 c-107 128 -205 251
-217 273 -18 31 -24 57 -24 102 0 53 5 69 33 110 43 65 95 94 170 94 78 0 121
-20 183 -87 l53 -57 48 53 c91 100 185 122 288 67z m1295 -458 c0 -220 -2
-254 -17 -270 -23 -26 -59 -23 -79 7 -40 62 -130 83 -192 45 -18 -11 -35 -20
-37 -20 -3 0 -5 18 -5 40 0 120 -106 261 -231 306 -67 24 -182 21 -253 -6 -80
-30 -165 -116 -196 -196 -63 -161 0 -352 141 -433 56 -32 56 -31 -18 -55 -198
-65 -352 -280 -353 -493 l0 -53 -65 0 -65 0 0 408 0 407 140 170 c77 94 149
188 160 211 14 29 20 60 20 112 l0 72 525 0 525 0 0 -252z m675 206 c-29 -43
-30 -53 -11 -99 12 -28 12 -35 2 -35 -7 0 -40 -14 -74 -31 -120 -60 -184 -169
-185 -314 -1 -70 3 -89 29 -145 37 -79 93 -138 162 -172 l52 -26 -29 -24 c-16
-12 -97 -120 -181 -238 -84 -118 -162 -225 -173 -237 -19 -21 -29 -23 -124
-23 l-103 0 0 280 c0 309 -3 329 -59 348 -42 15 -70 5 -118 -41 -48 -46 -91
-54 -137 -24 -90 59 -88 266 3 320 47 28 89 22 125 -17 62 -65 110 -73 157
-27 l29 29 0 256 0 256 330 0 329 0 -24 -36z m745 -654 l0 -691 -77 3 -78 3
-171 237 c-94 131 -183 247 -199 259 l-28 22 55 28 c64 32 131 102 161 167 18
38 22 66 22 147 0 94 -2 105 -33 168 -39 78 -103 136 -183 164 -37 13 -48 22
-43 33 18 40 16 90 -6 120 l-21 30 300 0 301 0 0 -690z m-2212 460 c62 -24
150 -25 207 -4 78 30 83 30 124 -14 64 -67 91 -133 91 -222 0 -61 -5 -86 -25
-126 -60 -121 -141 -175 -271 -182 -73 -4 -88 -1 -143 23 -70 32 -126 88 -162
163 -32 66 -33 178 -1 244 26 52 97 138 115 138 7 0 36 -9 65 -20z m1687 -143
c28 -9 74 -20 104 -24 63 -7 71 -21 71 -121 0 -206 -204 -357 -401 -298 -151
45 -253 212 -220 359 l12 54 62 7 c80 8 180 56 209 101 l22 32 45 -46 c29 -29
65 -53 96 -64z m-1240 -422 c17 -29 39 -50 69 -65 61 -29 104 -20 167 36 28
24 54 44 59 44 6 0 19 -9 30 -20 19 -19 20 -33 20 -295 l0 -276 -82 3 -83 3
-6 85 c-14 193 -119 345 -298 433 l-90 44 45 21 c25 12 64 42 87 67 l42 44 7
-40 c4 -23 19 -60 33 -84z m-280 -45 c87 -13 198 -65 257 -123 98 -95 147
-197 155 -324 l6 -83 -171 0 c-142 0 -173 3 -186 16 -25 25 -19 47 24 89 50
49 66 92 50 139 -29 89 -97 130 -215 130 -58 0 -90 -5 -115 -18 -68 -36 -110
-89 -110 -141 0 -34 35 -102 60 -115 34 -18 44 -48 25 -76 -15 -24 -16 -24
-185 -24 l-170 0 0 46 c0 122 56 252 148 347 77 79 217 139 337 146 11 0 52
-4 90 -9z m1483 -69 c17 -12 104 -122 192 -244 l160 -222 -131 -3 c-185 -4
-227 22 -156 97 46 48 57 71 57 123 0 54 -43 111 -104 139 -52 24 -171 25
-224 3 -49 -20 -99 -69 -113 -111 -16 -49 -2 -91 49 -145 40 -43 44 -51 34
-73 -14 -31 -47 -37 -194 -33 l-116 3 149 210 c169 236 182 252 224 271 44 21
134 13 173 -15z m1442 -56 c0 -4 -254 -550 -898 -1928 l-37 -77 -142 0 -142 0
33 73 c58 127 888 1901 898 1920 8 15 26 17 148 17 77 0 140 -2 140 -5z m607
-8 c-3 -8 -214 -460 -468 -1005 l-464 -992 -142 0 -142 0 28 63 c42 91 891
1909 902 1930 9 15 27 17 150 17 113 0 140 -3 136 -13z m-3507 -82 c43 -22 70
-63 70 -104 0 -30 -8 -46 -45 -83 -47 -49 -56 -79 -33 -121 24 -46 29 -46 326
-47 l282 0 0 -281 c0 -174 -4 -288 -10 -300 -17 -31 -61 -24 -100 16 -58 60
-128 69 -191 24 -16 -11 -36 -34 -45 -51 l-16 -31 -23 57 c-13 31 -28 63 -35
71 -11 13 -5 15 41 15 36 0 65 7 86 20 110 67 64 240 -63 240 -85 0 -134 -50
-134 -139 0 -28 -2 -51 -4 -51 -2 0 -23 11 -47 24 -95 53 -232 53 -331 2 l-48
-25 0 37 c-1 53 -33 118 -69 136 -93 49 -201 -14 -201 -116 0 -75 64 -128 154
-128 l45 0 -32 -62 c-29 -56 -32 -70 -32 -152 0 -79 4 -98 27 -146 36 -74 98
-136 168 -169 l57 -27 -33 -23 c-47 -32 -173 -166 -212 -226 -18 -27 -36 -62
-39 -77 l-5 -28 -144 0 -144 0 0 695 0 695 266 0 266 0 29 29 c44 44 35 95
-23 140 -34 27 -52 79 -39 113 12 32 65 76 99 84 15 3 32 8 37 10 20 7 117 -7
145 -21z m1456 -4 c48 -22 84 -64 84 -98 0 -33 -26 -80 -51 -94 -32 -17 -51
-71 -38 -108 20 -57 41 -61 319 -61 l250 0 0 -362 0 -363 -137 -293 c-75 -160
-138 -291 -140 -289 -2 2 -8 30 -14 63 -21 116 -103 226 -200 271 -21 10 -39
20 -39 23 0 3 18 14 40 24 22 11 61 41 86 68 166 177 115 458 -103 564 -51 26
-69 29 -153 29 -83 0 -102 -3 -151 -27 -177 -87 -250 -291 -170 -472 26 -59
100 -138 151 -161 37 -17 53 -35 30 -35 -24 0 -115 -67 -150 -111 -54 -69 -81
-147 -82 -236 l0 -73 -174 0 -174 0 0 256 0 256 -29 29 c-43 42 -93 40 -135
-5 -59 -63 -105 -72 -157 -29 -42 36 -59 79 -59 153 0 92 44 164 107 176 37 7
69 -9 115 -58 43 -46 117 -37 146 19 8 15 12 108 12 302 l0 281 286 0 286 0
29 29 c45 45 40 86 -16 143 -36 37 -45 54 -45 81 0 71 80 127 180 127 32 0 72
-8 96 -19z m20 -682 c71 -27 131 -85 170 -164 73 -150 7 -332 -150 -413 -42
-21 -65 -26 -131 -26 -101 -1 -165 26 -230 95 -65 69 -88 127 -88 215 0 222
219 371 429 293z m-1333 -186 c43 -62 57 -108 57 -180 -1 -120 -64 -219 -175
-274 -60 -29 -70 -31 -147 -27 -68 3 -93 10 -137 34 -64 34 -131 118 -151 188
-25 89 2 212 60 274 20 21 27 22 244 22 l223 0 26 -37z m166 -410 c59 -40 125
-29 182 31 36 39 68 46 93 20 14 -13 16 -51 16 -265 l0 -249 -175 0 c-157 0
-175 2 -175 17 0 55 -110 201 -215 284 l-65 53 34 11 c91 32 162 94 202 178
l18 37 25 -47 c14 -26 41 -58 60 -70z m1198 -94 c69 -33 119 -85 158 -163 20
-40 25 -65 25 -128 l0 -78 -330 0 -330 0 0 78 c0 63 5 88 25 128 90 180 276
247 452 163z m-1531 -72 c97 -71 234 -232 234 -274 0 -10 -65 -13 -330 -13
-181 0 -330 4 -330 8 0 19 81 131 136 188 142 146 194 162 290 91z"/>
<path d="M6300 3748 l0 -52 -35 34 c-29 28 -36 31 -50 20 -14 -12 -13 -16 15
-45 16 -17 30 -34 30 -38 0 -4 -20 -7 -45 -7 -38 0 -45 -3 -45 -20 0 -17 7
-20 47 -20 l47 0 -34 -35 c-28 -29 -31 -36 -20 -50 12 -14 16 -13 45 15 17 16
34 30 38 30 4 0 7 -18 7 -40 0 -33 3 -40 20 -40 17 0 20 7 20 47 l0 47 38 -37
c35 -34 40 -36 52 -22 11 14 8 21 -20 50 l-34 35 42 0 c35 0 42 3 42 20 0 17
-7 20 -40 20 -22 0 -40 3 -40 7 0 4 14 21 30 38 28 29 29 33 15 45 -14 11 -21
8 -50 -20 l-35 -34 0 52 c0 45 -3 52 -20 52 -17 0 -20 -7 -20 -52z"/>
<path d="M5642 3658 c-24 -24 -3 -192 37 -299 73 -192 260 -360 461 -415 91
-25 283 -25 365 0 290 87 497 348 499 629 l1 92 -145 3 c-80 1 -155 0 -166 -2
-18 -5 -22 -15 -26 -74 -3 -37 -14 -88 -26 -114 -30 -70 -102 -141 -175 -174
-53 -25 -75 -29 -147 -29 -76 0 -93 4 -152 33 -114 56 -181 154 -195 288 l-8
69 -155 3 c-113 2 -159 -1 -168 -10z m288 -66 c0 -46 29 -133 62 -184 39 -63
92 -109 164 -144 54 -26 68 -29 164 -29 93 0 112 3 162 27 109 51 207 172 223
277 15 89 0 81 141 81 l126 0 -7 -67 c-17 -158 -76 -283 -185 -394 -83 -84
-166 -135 -275 -169 -92 -29 -262 -32 -350 -6 -178 52 -330 176 -404 328 -48
97 -71 181 -71 255 l0 53 125 0 125 0 0 -28z"/>
<path d="M1467 2758 c-2 -7 13 -32 34 -55 55 -60 53 -90 -10 -158 -78 -86 -74
-141 15 -237 55 -59 54 -81 -5 -143 -50 -52 -61 -75 -61 -124 0 -36 7 -49 55
-101 68 -73 70 -95 15 -154 -41 -45 -48 -60 -29 -71 24 -15 109 92 109 137 0
38 -14 63 -66 120 -59 63 -59 93 0 156 52 57 66 82 66 120 0 30 -37 89 -84
131 -41 38 -35 73 24 137 77 85 78 134 8 210 -41 45 -63 54 -71 32z"/>
<path d="M1379 1295 c-107 -34 -201 -128 -235 -234 -55 -173 21 -353 184 -433
60 -30 75 -33 157 -33 82 0 97 3 157 33 130 64 198 174 198 322 0 147 -68 258
-196 321 -78 39 -188 49 -265 24z m247 -60 c64 -31 118 -89 152 -164 68 -147
-3 -333 -156 -408 -46 -23 -68 -27 -137 -27 -71 0 -90 4 -139 29 -66 34 -118
88 -152 160 -19 39 -24 67 -24 125 1 237 244 389 456 285z"/>
</g>
</svg>
