<svg width="333" height="240" viewBox="0 0 333 240" fill="none" xmlns="http://www.w3.org/2000/svg">
<path d="M90.9434 35.5396V110.125" stroke="#212121" stroke-miterlimit="10" stroke-dasharray="4 6"/>
<path d="M206.807 195.853L186.733 215.971L27.6328 106.796L47.6986 86.6865H206.807V195.853Z" fill="white" stroke="#212121" stroke-miterlimit="10"/>
<path d="M186.733 106.796H27.6328V215.963H186.733V106.796Z" fill="white" stroke="#212121" stroke-miterlimit="10"/>
<path d="M107.185 186.293C120.91 186.293 132.036 175.142 132.036 161.387C132.036 147.632 120.91 136.482 107.185 136.482C93.4602 136.482 82.334 147.632 82.334 161.387C82.334 175.142 93.4602 186.293 107.185 186.293Z" fill="#7AF7C2"/>
<path d="M119.522 153.472L103.74 169.296L95.8496 161.388" stroke="#212121" stroke-width="5" stroke-miterlimit="10"/>
<path d="M186.732 106.796L206.806 86.6865" stroke="#212121" stroke-miterlimit="10"/>
<path d="M226.872 86.6868L246.945 66.5693L206.806 86.6868L186.732 106.796L226.872 86.6868Z" fill="white" stroke="#212121" stroke-linecap="round" stroke-linejoin="round"/>
<path d="M291.5 218.859L271.434 238.969L152.465 159.966L172.531 139.857H291.5V218.859Z" fill="white" stroke="#212121" stroke-miterlimit="10"/>
<path d="M271.434 159.966H152.465V238.969H271.434V159.966Z" fill="white" stroke="#212121" stroke-miterlimit="10"/>
<path d="M214.087 217.762C224.169 217.762 232.342 209.571 232.342 199.467C232.342 189.364 224.169 181.173 214.087 181.173C204.005 181.173 195.832 189.364 195.832 199.467C195.832 209.571 204.005 217.762 214.087 217.762Z" fill="#00C1A4"/>
<path d="M223.157 193.66L211.56 205.283L205.766 199.468" stroke="#212121" stroke-width="4" stroke-miterlimit="10"/>
<path d="M311.565 139.857L331.638 119.739L291.499 139.857L271.434 159.966L311.565 139.857Z" fill="white" stroke="#212121" stroke-linecap="round" stroke-linejoin="round"/>
<path d="M125.834 139.857L145.9 119.739L172.531 139.857L152.465 159.966L125.834 139.857Z" fill="white" stroke="#212121" stroke-linecap="round" stroke-linejoin="round"/>
<path d="M27.6328 106.797L47.6986 86.687H173.857V106.797H27.6328Z" fill="#212121"/>
<path d="M103.271 105.793V59.5496H57.1295V105.793H103.271Z" fill="#FFA100"/>
<path d="M161.289 61.9917L173.859 49.3938L161.289 36.7959L148.719 49.3938L161.289 61.9917Z" fill="#212121" stroke="#212121" stroke-miterlimit="10"/>
<path d="M94.2833 34.0504L94.2888 34.045C96.3772 31.952 96.3773 28.5584 94.2889 26.4654L94.2834 26.4599C92.195 24.3669 88.8088 24.367 86.7204 26.46L86.7149 26.4655C84.6265 28.5585 84.6265 31.9519 86.715 34.0449L86.7204 34.0504C88.8089 36.1434 92.1949 36.1434 94.2833 34.0504Z" fill="#212121" stroke="#212121" stroke-miterlimit="10"/>
<path d="M126.158 105.792C126.158 99.4103 128.688 93.2896 133.191 88.7768C137.694 84.264 143.801 81.7288 150.169 81.7288C156.537 81.7288 162.645 84.264 167.148 88.7768C171.651 93.2896 174.18 99.4103 174.18 105.792" fill="#FF76C4"/>
<path d="M280.217 150.915H199.746V66.4686C199.746 63.806 200.802 61.2524 202.68 59.3697C204.559 57.4869 207.107 56.4292 209.764 56.4292H270.176C272.833 56.4292 275.381 57.4869 277.26 59.3697C279.139 61.2524 280.194 63.806 280.194 66.4686L280.217 150.915Z" fill="white"/>
<path d="M271.02 160.367V36.8469" stroke="#212121" stroke-miterlimit="10"/>
<path d="M245.06 160.367V9.75928" stroke="#212121" stroke-miterlimit="10"/>
<path d="M218.02 160.367V9.75928" stroke="#212121" stroke-miterlimit="10"/>
<path d="M280.754 144.114H173.674" stroke="#212121" stroke-miterlimit="10"/>
<path d="M280.753 117.027H176.918" stroke="#212121" stroke-miterlimit="10"/>
<path d="M280.753 89.9387H168.266" stroke="#212121" stroke-miterlimit="10"/>
<path d="M279.672 63.9348H199.633" stroke="#212121" stroke-miterlimit="10"/>
<path d="M280.216 36.5745H200.555" stroke="#212121" stroke-miterlimit="10"/>
<path d="M258.1 121.203L258.105 121.197C260.194 119.104 260.194 115.711 258.105 113.618L258.1 113.612C256.011 111.519 252.625 111.519 250.537 113.612L250.531 113.618C248.443 115.711 248.443 119.104 250.531 121.197L250.537 121.203C252.625 123.296 256.011 123.296 258.1 121.203Z" fill="#212121" stroke="#212121" stroke-miterlimit="10"/>
<path d="M280.219 150.915L271.427 159.966H199.764V66.4686C199.764 63.806 200.819 61.2524 202.698 59.3697C204.576 57.4869 207.124 56.4292 209.781 56.4292H270.194C272.851 56.4292 275.399 57.4869 277.277 59.3697C279.156 61.2524 280.212 63.806 280.212 66.4686L280.219 150.915Z" stroke="#212121" stroke-miterlimit="10"/>
<path d="M254.321 159.959H173.85V82.8792C173.85 80.2166 174.905 77.6631 176.784 75.7803C178.662 73.8976 181.21 72.8398 183.867 72.8398H244.288C246.944 72.8398 249.492 73.8976 251.371 75.7803C253.25 77.6631 254.305 80.2166 254.305 82.8792L254.321 159.959Z" fill="white" stroke="#212121" stroke-miterlimit="10"/>
<path d="M187.104 97.1274H224.446" stroke="#212121" stroke-miterlimit="10"/>
<path d="M187.104 119.26H237.252" stroke="#212121" stroke-miterlimit="10"/>
<path d="M187.104 108.194H213.372" stroke="#212121" stroke-miterlimit="10"/>
<path d="M237.245 128.095H187.104V144.104H237.245V128.095Z" fill="#0081FF"/>
<path d="M1 86.6868L21.0657 66.5693L47.6968 86.6868L27.631 106.796L1 86.6868Z" fill="white" stroke="#212121" stroke-linecap="round" stroke-linejoin="round"/>
<path d="M119.684 12.1016V85.9452" stroke="#212121" stroke-miterlimit="10" stroke-dasharray="4 6"/>
<path d="M119.684 105.792V85.9451" stroke="white" stroke-miterlimit="10" stroke-dasharray="4 6"/>
<path d="M152.465 159.966L172.531 139.857H173.856V159.966H152.465Z" fill="#212121"/>
<path d="M280.219 139.857V150.915L291.5 139.857H280.219Z" fill="#212121"/>
<path d="M113.197 12.9971L126.166 12.9971V-9.53674e-05L113.197 -9.53674e-05V12.9971Z" fill="#00CAFF"/>
<path d="M199.863 144.104C199.863 144.104 203.277 136.096 214.982 136.096C226.687 136.096 226.895 128.095 226.895 128.095" stroke="#212121" stroke-miterlimit="10"/>
<path d="M218.127 67.4032C220.153 67.4032 221.795 65.7574 221.795 63.7272C221.795 61.6971 220.153 60.0513 218.127 60.0513C216.101 60.0513 214.459 61.6971 214.459 63.7272C214.459 65.7574 216.101 67.4032 218.127 67.4032Z" fill="#FF0076" stroke="#212121" stroke-miterlimit="10"/>
</svg>
