<?xml version="1.0" standalone="no"?>
<!DOCTYPE svg PUBLIC "-//W3C//DTD SVG 20010904//EN"
 "http://www.w3.org/TR/2001/REC-SVG-20010904/DTD/svg10.dtd">
<svg version="1.0" xmlns="http://www.w3.org/2000/svg"
 width="1179.000000pt" height="663.000000pt" viewBox="0 0 1179.000000 663.000000"
 preserveAspectRatio="xMidYMid meet">
<metadata>
Created by potrace 1.16, written by Peter Selinger 2001-2019
</metadata>
<g transform="translate(0.000000,663.000000) scale(0.100000,-0.100000)"
fill="#000000" stroke="none">
<path d="M1802 5632 c-10 -7 -12 -368 -10 -1773 l3 -1764 788 -3 787 -2 0
-643 c0 -353 4 -647 8 -653 11 -17 2538 -30 2558 -14 7 7 14 27 14 44 0 17 7
59 15 94 44 186 184 334 368 387 68 19 191 22 262 4 208 -50 371 -241 392
-456 3 -35 11 -67 18 -73 8 -7 202 -9 561 -8 l549 3 -1 130 c-4 372 -182 771
-474 1064 -206 207 -449 351 -725 430 l-70 20 624 -2 624 -2 72 -170 73 -170
398 0 399 0 3 173 2 172 123 0 122 0 220 -220 c160 -160 225 -220 240 -218 53
8 27 41 -210 278 l-235 235 0 1261 c0 1141 -2 1262 -16 1268 -9 3 -658 6
-1443 6 -1097 0 -1430 -3 -1439 -12 -9 -9 -12 -165 -12 -640 l0 -628 -1180 0
-1180 0 0 939 c0 847 -2 939 -16 945 -24 9 -2197 7 -2212 -2z m2168 -357 l0
-295 -1060 0 -1060 0 0 295 0 295 1060 0 1060 0 0 -295z m5270 -660 l0 -345
-1395 0 -1395 0 0 345 0 345 1395 0 1395 0 0 -345z m-5270 -285 l0 -580 -270
0 -270 0 0 404 c0 359 -2 405 -16 410 -28 11 -934 7 -955 -4 -18 -10 -19 -26
-19 -433 0 -316 3 -426 12 -435 9 -9 126 -12 465 -12 l453 0 0 -765 0 -765
-760 0 -760 0 0 1380 0 1380 1060 0 1060 0 0 -580z m-600 -210 l0 -380 -432 2
-433 3 -3 378 -2 377 435 0 435 0 0 -380z m4120 42 c-245 -121 -411 -325 -481
-587 -28 -104 -30 -307 -6 -409 43 -176 117 -306 247 -436 110 -110 203 -168
350 -217 l95 -33 -622 0 -623 0 0 865 0 865 568 0 567 0 -95 -48z m1750 -779
l0 -826 -64 61 c-35 34 -69 62 -75 62 -6 0 -15 -9 -21 -21 -10 -18 -2 -29 66
-100 l77 -79 -584 0 -584 1 85 28 c159 52 272 123 382 239 132 140 215 319
239 516 31 245 -59 516 -232 700 -82 88 -154 141 -267 198 l-96 48 537 0 537
0 0 -827z m-1208 793 c256 -49 473 -214 588 -448 62 -128 83 -220 83 -368 0
-148 -21 -240 -83 -366 -100 -204 -266 -349 -490 -426 -92 -32 -100 -33 -255
-33 -155 0 -163 1 -255 33 -277 96 -477 308 -551 587 -25 96 -30 277 -10 370
61 280 250 503 515 609 135 54 310 70 458 42z m-1834 -808 l2 -318 -1385 0
-1385 0 0 313 c0 173 3 317 7 320 3 4 626 6 1382 5 l1376 -3 3 -317z m0 -659
l2 -276 -82 -17 c-518 -109 -977 -502 -1175 -1004 -62 -158 -113 -396 -113
-526 l0 -46 -700 0 -700 0 0 1068 c0 588 3 1072 7 1075 3 4 626 6 1382 5
l1376 -3 3 -276z m462 -329 c369 -46 697 -211 958 -484 192 -202 324 -438 391
-704 18 -70 51 -285 51 -333 0 -18 -8 -19 -140 -19 l-140 0 0 48 c0 74 -29
226 -62 327 -64 197 -170 367 -323 520 -189 189 -403 305 -668 362 -117 25
-399 25 -517 -1 -447 -97 -809 -406 -967 -825 -36 -95 -71 -251 -79 -347 l-7
-84 -133 0 c-74 0 -134 2 -134 4 0 42 26 234 42 305 108 501 485 944 965 1131
111 44 268 85 378 99 100 12 286 13 385 1z m-41 -336 c41 -3 116 -16 167 -29
428 -112 775 -459 889 -889 28 -104 50 -275 37 -288 -5 -5 -73 -7 -153 -6
l-144 3 -2 40 c-21 336 -232 642 -545 790 -139 66 -244 89 -403 89 -163 -1
-270 -25 -411 -94 -299 -145 -499 -429 -532 -751 l-7 -74 -142 -3 -143 -3 0
62 c0 192 103 475 240 658 68 91 200 220 290 283 171 121 392 200 610 218 84
7 102 7 249 -6z m15 -365 c84 -15 208 -62 290 -111 91 -54 225 -184 287 -277
77 -118 139 -301 139 -412 l0 -39 -149 0 -148 0 -7 48 c-32 236 -221 436 -461
487 -88 18 -142 19 -230 0 -114 -24 -209 -77 -295 -164 -88 -89 -134 -173
-158 -291 l-17 -80 -152 0 -153 0 0 28 c0 44 19 141 42 212 90 281 318 500
608 584 118 34 260 39 404 15z"/>
<path d="M8487 4723 c-4 -3 -7 -53 -7 -110 l0 -103 110 0 110 0 0 110 0 110
-103 0 c-57 0 -107 -3 -110 -7z"/>
<path d="M8822 4687 l-22 -23 25 -24 25 -24 -21 -22 c-39 -42 3 -84 45 -45
l23 21 18 -20 c22 -25 37 -25 58 -2 16 17 15 20 -8 42 l-25 24 25 26 25 26
-23 22 -23 22 -24 -25 -24 -25 -26 25 -26 25 -22 -23z"/>
<path d="M3065 4150 c-71 -99 -132 -180 -135 -180 -3 0 -52 61 -109 135 -82
106 -109 135 -127 135 -44 0 -26 -39 78 -174 116 -151 147 -186 163 -186 18 0
300 398 300 423 0 15 -7 23 -20 25 -17 2 -47 -34 -150 -178z"/>
<path d="M7554 3556 c-44 -20 -76 -64 -72 -100 2 -25 8 -31 27 -31 20 0 27 7
33 33 17 65 86 63 114 -4 9 -22 21 -34 33 -34 27 0 35 32 17 73 -25 61 -94 89
-152 63z"/>
<path d="M8105 3556 c-37 -16 -53 -35 -65 -76 -19 -66 30 -87 56 -25 29 70
103 66 118 -5 5 -26 10 -31 28 -28 51 7 24 103 -37 132 -40 19 -60 19 -100 2z"/>
<path d="M7577 3293 c-14 -13 -6 -49 22 -109 37 -79 82 -129 145 -162 70 -36
187 -37 258 -3 86 42 178 171 178 251 l0 30 -298 0 c-164 0 -302 -3 -305 -7z
m533 -58 c0 -3 -9 -24 -20 -45 l-20 -40 -195 0 c-214 0 -199 -4 -225 64 l-10
26 235 0 c129 0 235 -2 235 -5z"/>
<path d="M5540 3365 l0 -105 110 0 110 0 0 105 0 105 -110 0 -110 0 0 -105z"/>
<path d="M5882 3437 l-22 -23 25 -24 25 -24 -25 -26 -25 -27 20 -18 c20 -18
21 -18 45 5 l25 23 25 -23 25 -24 22 22 22 22 -24 25 -23 25 23 25 24 25 -20
20 -20 20 -24 -25 -24 -25 -26 25 -26 25 -22 -23z"/>
<path d="M3987 2575 c-170 -63 -260 -259 -197 -430 21 -56 43 -81 318 -357
163 -164 301 -298 307 -298 6 0 139 129 297 288 247 247 291 295 314 347 72
157 7 345 -148 431 -49 27 -61 29 -153 29 -89 0 -105 -3 -150 -27 -27 -14 -74
-51 -104 -82 l-54 -55 -69 64 c-86 80 -148 105 -251 104 -40 0 -89 -7 -110
-14z m192 -61 c40 -11 72 -34 140 -95 49 -43 93 -79 98 -79 5 0 38 30 73 66
89 90 145 119 235 118 116 0 195 -54 246 -169 27 -61 23 -149 -11 -215 -14
-29 -114 -137 -283 -308 l-262 -262 -267 267 c-297 297 -311 315 -310 428 1
79 30 142 90 195 73 65 156 83 251 54z"/>
<path d="M8550 5515 c0 -33 -2 -35 -35 -35 -32 0 -35 -2 -35 -30 0 -28 3 -30
35 -30 33 0 35 -2 35 -35 0 -33 2 -35 35 -35 33 0 35 2 35 35 0 33 2 35 35 35
32 0 35 2 35 30 0 28 -3 30 -35 30 -33 0 -35 2 -35 35 0 33 -2 35 -35 35 -33
0 -35 -2 -35 -35z"/>
<path d="M2517 1293 c-4 -3 -7 -21 -7 -40 0 -31 -2 -33 -36 -33 -33 0 -35 -2
-32 -27 2 -23 8 -29 35 -31 28 -3 32 -7 35 -35 2 -27 8 -33 31 -35 25 -3 27
-1 27 32 0 34 2 36 35 36 32 0 35 2 35 29 0 26 -4 30 -32 33 -30 3 -33 6 -36
41 -3 31 -7 37 -26 37 -12 0 -26 -3 -29 -7z"/>
</g>
</svg>
