<?xml version="1.0" standalone="no"?>
<!DOCTYPE svg PUBLIC "-//W3C//DTD SVG 20010904//EN"
 "http://www.w3.org/TR/2001/REC-SVG-20010904/DTD/svg10.dtd">
<svg version="1.0" xmlns="http://www.w3.org/2000/svg"
 width="1179.000000pt" height="663.000000pt" viewBox="0 0 1179.000000 663.000000"
 preserveAspectRatio="xMidYMid meet">
<metadata>
Created by potrace 1.16, written by Peter Selinger 2001-2019
</metadata>
<g transform="translate(0.000000,663.000000) scale(0.100000,-0.100000)"
fill="#000000" stroke="none">
<path d="M2340 5631 c-84 -27 -128 -66 -598 -535 -266 -264 -501 -504 -522
-532 -51 -66 -72 -124 -73 -204 -2 -132 68 -245 188 -301 50 -24 73 -29 140
-29 146 0 128 -14 717 576 392 394 522 530 537 564 16 35 21 66 21 143 0 85
-3 104 -25 148 -32 62 -91 120 -153 150 -50 25 -183 36 -232 20z m207 -79
c158 -81 199 -283 84 -414 -159 -180 -463 -71 -465 167 0 79 18 129 67 182 40
44 77 68 127 84 42 14 142 3 187 -19z m-419 -375 c49 -110 159 -186 283 -195
l71 -5 -418 -419 c-465 -465 -471 -469 -587 -469 -36 0 -81 7 -102 15 -103 43
-169 141 -169 250 1 116 2 118 467 584 l422 422 6 -68 c4 -38 16 -89 27 -115z"/>
<path d="M8961 5494 c-176 -47 -328 -190 -392 -367 -19 -55 -23 -87 -27 -273
-4 -233 3 -284 57 -399 57 -120 170 -227 292 -277 30 -12 56 -23 58 -24 1 -2
-52 -94 -119 -205 -66 -111 -119 -208 -116 -216 3 -7 12 -16 20 -19 8 -3 139
82 314 204 l301 210 318 4 c251 4 330 8 373 21 30 8 56 14 58 12 2 -2 -10 -27
-27 -56 -47 -85 -112 -241 -107 -256 8 -19 185 -17 261 2 185 49 354 218 404
405 8 30 11 117 9 264 -4 270 -3 269 -104 178 l-69 -61 -6 217 c-6 228 -8 242
-62 348 -66 130 -190 235 -329 279 l-79 25 -487 -1 c-392 0 -498 -3 -541 -15z
m1070 -60 c90 -27 150 -63 220 -133 70 -70 106 -130 133 -220 23 -78 23 -434
0 -512 -49 -166 -170 -293 -334 -350 -61 -21 -87 -23 -395 -28 l-330 -6 -233
-162 c-128 -90 -236 -163 -239 -163 -3 0 1 10 9 23 8 12 50 82 93 155 57 98
76 138 69 149 -5 8 -38 24 -74 36 -133 45 -236 136 -296 262 -45 94 -54 149
-54 340 0 191 9 246 54 340 59 124 164 217 294 262 66 22 73 22 548 23 413 0
488 -2 535 -16z"/>
<path d="M7758 5333 c-3 -36 -5 -38 -40 -41 -35 -3 -38 -6 -38 -33 0 -27 2
-29 40 -29 39 0 40 -1 40 -35 0 -32 2 -35 30 -35 28 0 30 3 30 35 0 33 2 35
35 35 32 0 35 2 35 30 0 28 -3 30 -35 30 -34 0 -35 1 -35 40 0 38 -2 40 -29
40 -27 0 -30 -3 -33 -37z"/>
<path d="M5517 5105 c-312 -51 -575 -190 -794 -419 -181 -188 -297 -407 -354
-667 -34 -151 -34 -409 -1 -558 30 -131 62 -220 122 -341 77 -152 140 -233
339 -430 205 -204 254 -272 317 -438 48 -129 62 -223 84 -557 13 -216 24 -314
36 -350 30 -89 104 -189 173 -233 24 -16 12 -17 -248 -22 -246 -4 -275 -7
-285 -22 -8 -14 -7 -22 7 -35 17 -17 68 -18 803 -22 824 -3 814 -4 814 40 0
35 -32 39 -302 39 -236 1 -261 2 -243 16 46 34 108 101 132 141 58 100 64 129
84 448 21 341 28 394 70 520 61 182 143 299 339 485 158 149 244 257 319 400
104 198 149 365 158 585 16 392 -125 754 -402 1030 -195 196 -432 323 -710
380 -111 23 -347 28 -458 10z m391 -61 c189 -28 383 -103 547 -213 93 -62 243
-206 315 -304 123 -164 214 -385 244 -589 68 -455 -101 -899 -460 -1210 -49
-42 -109 -101 -134 -132 l-45 -55 -307 -1 c-170 0 -308 2 -308 4 0 2 79 248
175 547 97 299 174 553 173 564 -3 20 -12 20 -391 23 -348 2 -388 1 -394 -14
-3 -9 74 -262 171 -563 97 -302 176 -551 176 -555 0 -3 -138 -6 -307 -6 l-308
1 -35 45 c-19 25 -85 90 -146 145 -244 215 -385 451 -450 749 -26 120 -26 400
0 520 75 345 280 646 570 838 278 183 592 254 914 206z m-218 -1876 c0 -263
-4 -448 -9 -443 -6 8 -207 622 -285 873 l-7 22 150 0 151 0 0 -452z m350 445
c0 -5 -274 -860 -285 -888 -2 -5 -4 194 -4 443 l-1 452 145 0 c80 0 145 -3
145 -7z m20 -2344 c0 -22 -112 -121 -167 -147 -53 -25 -68 -27 -183 -27 -123
0 -126 1 -187 34 -60 32 -153 118 -153 141 0 7 112 10 345 10 237 0 345 -3
345 -11z"/>
<path d="M1443 3734 c-11 -30 25 -175 63 -253 65 -131 167 -207 295 -218 l59
-6 0 -106 c0 -221 71 -395 215 -529 71 -67 213 -145 255 -140 28 3 35 36 10
48 -8 4 -51 25 -95 46 -136 66 -240 188 -295 349 -27 77 -43 208 -35 281 6 60
7 61 43 72 63 19 132 69 148 107 28 67 -15 130 -88 130 -33 0 -45 -7 -73 -37
-18 -19 -43 -63 -55 -97 l-23 -61 -42 0 c-98 0 -204 69 -257 167 -29 53 -56
140 -67 211 -5 39 -10 48 -29 50 -14 2 -25 -3 -29 -14z"/>
<path d="M8094 3735 c-74 -16 -105 -31 -170 -83 -106 -85 -144 -192 -144 -412
0 -216 27 -300 128 -397 l55 -53 -45 0 c-102 0 -242 -64 -328 -150 -60 -61
-115 -154 -136 -234 -18 -69 -28 -227 -15 -246 8 -12 47 -16 221 -18 196 -3
210 -4 210 -21 0 -11 7 -21 15 -25 17 -6 48 21 40 35 -4 5 16 9 44 9 35 0 51
-4 51 -13 0 -7 5 -18 12 -25 14 -14 48 2 48 23 0 11 12 15 45 15 33 0 45 -4
45 -15 0 -21 34 -37 48 -23 7 7 12 18 12 25 0 9 16 13 51 13 28 0 48 -4 44 -9
-8 -14 23 -41 40 -35 8 4 15 15 15 25 0 16 8 19 50 19 42 0 50 -3 50 -19 0
-10 7 -21 15 -25 17 -6 48 21 40 35 -4 5 16 9 44 9 35 0 51 -4 51 -13 0 -7 5
-18 12 -25 14 -14 48 2 48 23 0 11 12 15 45 15 33 0 45 -4 45 -15 0 -21 34
-37 48 -23 7 7 12 17 12 24 0 6 18 14 40 18 l40 6 0 103 c0 184 -58 312 -192
424 -28 23 -42 42 -40 54 4 23 -24 36 -46 23 -10 -7 -36 -2 -81 13 -36 12 -88
23 -116 23 l-50 1 40 35 c28 25 46 33 61 30 26 -7 47 15 38 38 -3 9 -9 16 -14
16 -4 0 4 21 17 48 31 63 43 142 43 283 0 200 -28 290 -122 385 -59 60 -129
98 -212 113 -71 13 -74 13 -152 -4z m232 -85 c73 -36 126 -91 163 -169 25 -54
26 -62 26 -241 l0 -185 -33 -67 c-103 -211 -362 -258 -536 -98 -25 23 -58 68
-73 99 -28 55 -28 58 -28 251 0 223 7 249 87 336 103 112 257 141 394 74z
m216 -941 c190 -64 318 -236 318 -429 l0 -70 -685 0 -685 0 0 33 c1 216 133
405 328 468 50 16 95 18 360 18 281 1 307 -1 364 -20z"/>
<path d="M9190 3455 c-20 -24 -3 -34 111 -72 198 -64 357 -161 484 -294 106
-111 106 -110 51 -192 -48 -71 -86 -175 -86 -233 0 -47 22 -96 54 -121 60 -48
157 -37 203 24 50 65 43 205 -16 330 l-29 61 31 29 c52 48 125 94 206 128 57
24 76 37 76 51 0 13 -8 20 -28 22 -36 4 -175 -63 -256 -124 l-63 -47 -36 44
c-137 171 -334 301 -573 379 -105 35 -112 35 -129 15z m770 -643 c11 -35 20
-91 20 -124 0 -53 -3 -63 -30 -90 -27 -26 -36 -30 -68 -25 -20 4 -45 16 -54
28 -37 45 -15 155 53 260 30 48 34 50 46 33 8 -10 23 -47 33 -82z"/>
<path d="M3078 3105 c-189 -48 -339 -199 -383 -387 -18 -77 -21 -439 -4 -520
25 -121 108 -246 219 -331 l35 -26 -66 -1 c-152 -1 -316 -70 -436 -184 -158
-149 -229 -331 -221 -561 l3 -90 970 0 970 0 3 100 c2 55 -2 131 -10 170 -7
39 -11 79 -10 89 1 11 -4 26 -12 35 -7 9 -25 39 -39 67 -15 29 -48 81 -75 116
-41 53 -47 66 -35 76 10 10 10 18 3 32 -13 24 -24 25 -43 5 -13 -13 -23 -9
-79 29 -36 23 -90 53 -121 66 -40 17 -57 29 -57 42 0 26 -27 34 -49 14 -14
-13 -29 -15 -62 -10 -24 4 -50 11 -57 17 -9 7 -20 6 -37 -3 -44 -24 -38 -3 8
29 55 37 122 113 149 166 11 22 26 47 33 55 23 29 35 149 35 361 0 222 -6 267
-47 360 l-20 45 21 0 c16 -1 21 5 21 24 0 29 -32 41 -49 18 -9 -12 -21 -3 -65
44 -44 48 -51 61 -41 73 7 8 10 22 6 30 -7 20 -43 19 -54 -1 -8 -15 -11 -15
-34 0 -82 54 -262 79 -370 51z m227 -60 c136 -36 241 -124 303 -252 l37 -78 3
-238 c3 -218 2 -244 -17 -306 -53 -173 -190 -292 -371 -322 -222 -37 -457 126
-509 352 -17 73 -14 444 4 514 64 243 312 392 550 330z m385 -1297 c255 -94
420 -332 420 -610 l0 -88 -912 2 -913 3 -3 69 c-11 248 132 487 353 592 131
63 139 63 580 61 l400 -2 75 -27z"/>
<path d="M10470 2089 c-318 -41 -614 -242 -775 -525 -85 -148 -139 -345 -133
-481 l3 -68 524 -3 c378 -1 528 1 537 9 19 16 21 1048 2 1067 -13 13 -61 14
-158 1z m100 -534 l0 -475 -476 0 -476 0 7 68 c36 335 243 631 550 784 113 57
252 96 348 97 l47 1 0 -475z"/>
<path d="M1827 1994 c-4 -4 -7 -22 -7 -41 0 -31 -2 -33 -35 -33 -32 0 -35 -2
-35 -30 0 -28 3 -30 35 -30 33 0 35 -2 35 -35 0 -33 2 -35 35 -35 33 0 35 2
35 35 0 33 2 35 35 35 32 0 35 2 35 30 0 28 -3 30 -34 30 -33 0 -35 2 -38 38
-3 31 -7 37 -28 40 -14 2 -29 0 -33 -4z"/>
</g>
</svg>
